<?xml version="1.0" standalone="no"?>
<!DOCTYPE svg PUBLIC "-//W3C//DTD SVG 20010904//EN"
 "http://www.w3.org/TR/2001/REC-SVG-20010904/DTD/svg10.dtd">
<svg version="1.0" xmlns="http://www.w3.org/2000/svg"
 width="500.000000pt" height="500.000000pt" viewBox="0 0 500.000000 500.000000"
 preserveAspectRatio="xMidYMid meet">
<metadata>
Created by potrace 1.14, written by Peter Selinger 2001-2017
</metadata>
<g transform="translate(0.000000,500.000000) scale(0.100000,-0.100000)"
fill="#000000" stroke="none">
<path d="M2330 3912 c-47 -26 -128 -73 -180 -104 -157 -92 -273 -159 -315
-183 -259 -145 -418 -241 -428 -259 -9 -15 -14 -150 -19 -481 -4 -253 -9 -485
-10 -515 -2 -62 17 -202 31 -228 5 -10 64 -49 130 -87 113 -64 135 -85 90 -85
-17 0 -19 -7 -19 -70 0 -52 3 -70 13 -70 31 0 110 30 140 53 l33 25 60 -37
c34 -20 156 -90 272 -156 l212 -120 0 -47 c0 -49 16 -67 22 -25 3 20 8 22 63
22 55 0 60 -2 66 -25 7 -24 7 -24 8 -2 2 35 31 40 53 9 24 -34 46 -36 25 -3
-15 22 -15 25 -1 37 8 7 13 20 11 29 -3 12 45 44 193 128 l198 112 71 0 71 0
0 40 c0 38 3 42 55 75 30 19 57 35 60 35 4 0 19 9 35 20 15 11 30 17 34 13 3
-3 6 -46 6 -95 l0 -88 70 0 70 0 0 136 c0 133 1 137 25 156 25 19 25 20 25
184 l0 164 55 0 56 0 -3 63 -3 62 -52 3 c-51 3 -53 4 -53 33 0 36 -14 37 -65
2 -37 -26 -49 -28 -168 -33 l-127 -5 0 272 c0 223 -3 274 -14 286 -8 8 -51 36
-96 62 -68 40 -85 46 -103 37 -12 -5 -112 -62 -222 -126 -186 -108 -204 -116
-253 -116 -44 0 -65 7 -135 47 -100 57 -127 80 -127 108 0 28 15 41 124 105
101 59 147 66 217 35 l41 -19 61 33 c115 62 116 58 -20 137 -164 95 -161 96
-378 -31 -93 -54 -204 -118 -245 -141 -164 -94 -162 -92 -158 -121 2 -20 16
-34 53 -56 126 -74 435 -253 482 -279 85 -47 92 -44 326 91 49 28 91 51 93 51
2 0 33 18 68 40 117 74 116 76 116 -251 0 -147 -3 -275 -6 -284 -8 -20 -104
-86 -116 -79 -4 3 -8 50 -8 105 l0 99 -70 0 -70 0 0 -147 -1 -148 -45 -28
c-25 -15 -49 -27 -55 -27 -5 0 -9 73 -9 175 l0 175 -70 0 -70 0 0 -210 c0
-138 -4 -210 -10 -210 -15 0 -87 37 -250 132 -80 45 -157 89 -172 97 -15 8
-37 25 -49 38 l-22 23 191 0 192 0 0 65 0 65 -195 0 -195 0 0 113 c0 61 -4
117 -8 123 -9 14 -147 94 -161 94 -8 0 -11 -61 -11 -189 l0 -188 -40 19 c-22
11 -67 22 -100 25 l-60 6 0 299 c0 325 2 340 56 389 16 14 49 37 74 51 25 13
185 105 355 203 171 98 329 187 353 197 57 26 84 19 212 -54 58 -34 119 -68
135 -78 17 -9 104 -60 195 -112 91 -52 185 -106 210 -120 194 -108 190 -101
190 -359 0 -122 4 -199 10 -199 9 0 58 25 118 62 l32 20 0 232 c0 209 -2 234
-17 248 -10 9 -155 95 -323 191 -168 96 -384 221 -480 277 -221 130 -230 131
-350 62z m1010 -1518 c0 -56 -3 -74 -14 -74 -9 0 -15 -16 -19 -47 -6 -57 1
-51 -237 -189 l-185 -108 -92 -4 -93 -4 0 -48 c0 -27 -4 -52 -10 -55 -6 -4
-10 13 -10 44 l0 51 -46 0 -45 0 3 42 c3 40 6 44 68 80 54 31 74 38 122 38 57
0 57 0 60 33 3 29 12 37 108 94 215 127 190 105 190 170 l0 58 100 -3 100 -3
0 -75z m-1667 46 c14 -11 27 -30 29 -43 2 -16 11 -23 33 -25 16 -2 33 -8 36
-14 4 -6 62 -42 130 -82 l124 -71 3 -113 c1 -61 0 -112 -3 -112 -4 0 -27 12
-53 28 -26 15 -64 36 -85 48 -31 16 -42 30 -56 72 -30 88 -95 138 -194 149
-29 3 -58 10 -64 16 -14 10 -19 148 -6 160 14 15 81 6 106 -13z m632 -395 c62
-36 120 -65 129 -65 9 0 16 -4 16 -10 0 -5 -20 -10 -45 -10 l-45 0 0 -65 0
-64 132 -3 133 -3 -72 -37 c-73 -39 -118 -47 -156 -27 -57 30 -213 124 -219
134 -13 18 -9 215 4 215 6 0 62 -29 123 -65z m252 -472 c-9 -9 -20 -13 -24 -9
-4 4 -1 11 7 16 25 16 35 11 17 -7z"/>
<path d="M1690 1610 c0 -5 9 -10 20 -10 17 0 20 -7 20 -50 0 -27 5 -50 10 -50
6 0 10 23 10 50 0 43 3 50 20 50 11 0 20 5 20 10 0 6 -22 10 -50 10 -27 0 -50
-4 -50 -10z"/>
<path d="M1830 1560 l0 -60 45 0 c25 0 45 5 45 10 0 6 -16 10 -35 10 -24 0
-35 5 -35 15 0 10 10 15 30 15 17 0 30 5 30 10 0 6 -13 10 -30 10 -20 0 -30 5
-30 15 0 10 11 15 35 15 19 0 35 5 35 10 0 6 -20 10 -45 10 l-45 0 0 -60z"/>
<path d="M1977 1602 c-47 -52 9 -122 77 -96 28 11 17 21 -20 20 -43 -1 -66 23
-48 52 8 11 23 17 48 16 37 -1 48 9 20 20 -29 11 -61 6 -77 -12z"/>
<path d="M2110 1560 c0 -33 4 -60 10 -60 6 0 10 11 10 25 0 22 4 25 39 25 36
0 40 -3 44 -27 2 -16 4 1 4 37 0 36 -2 53 -4 38 -4 -25 -8 -28 -44 -28 -35 0
-39 3 -39 25 0 14 -4 25 -10 25 -6 0 -10 -27 -10 -60z"/>
<path d="M2647 1602 c-37 -41 -9 -102 46 -102 56 0 88 68 49 103 -25 22 -75
21 -95 -1z m87 -24 c17 -28 -4 -53 -45 -53 -28 0 -35 4 -37 23 -2 13 -1 30 2
38 8 21 66 14 80 -8z"/>
<path d="M2840 1610 c0 -5 5 -10 10 -10 6 0 10 -19 10 -41 0 -41 0 -41 -31
-35 -22 4 -29 2 -27 -7 6 -17 46 -21 64 -7 8 7 14 30 14 51 0 22 5 39 10 39 6
0 10 5 10 10 0 6 -13 10 -30 10 -16 0 -30 -4 -30 -10z"/>
<path d="M2940 1560 l0 -60 45 0 c25 0 45 5 45 10 0 6 -16 10 -35 10 -24 0
-35 5 -35 15 0 10 10 15 30 15 17 0 30 5 30 10 0 6 -13 10 -30 10 -20 0 -30 5
-30 15 0 10 10 15 29 15 17 0 33 5 36 10 4 6 -12 10 -39 10 l-46 0 0 -60z"/>
<path d="M3085 1606 c-25 -18 -25 -74 1 -93 21 -15 76 -14 81 3 2 6 -10 8 -31
6 -27 -3 -37 0 -45 17 -18 33 3 63 42 61 47 -3 54 -1 37 10 -22 14 -63 12 -85
-4z"/>
<path d="M3210 1610 c0 -5 9 -10 20 -10 17 0 20 -7 20 -50 0 -27 5 -50 10 -50
6 0 10 23 10 50 0 43 3 50 20 50 11 0 20 5 20 10 0 6 -22 10 -50 10 -27 0 -50
-4 -50 -10z"/>
<path d="M2290 1320 c0 -33 4 -60 10 -60 6 0 10 19 10 43 l0 42 23 -29 23 -29
22 29 21 29 1 -42 c0 -24 5 -43 10 -43 6 0 10 27 10 60 0 33 -4 60 -9 60 -5 0
-20 -14 -32 -31 l-22 -32 -26 32 c-14 17 -29 31 -33 31 -5 0 -8 -27 -8 -60z"/>
<path d="M2480 1360 c-54 -54 20 -127 91 -90 10 6 19 20 19 30 0 16 -7 20 -30
20 -16 0 -30 -4 -30 -10 0 -5 10 -10 22 -10 16 0 19 -3 11 -11 -15 -15 -64 -7
-77 14 -19 29 5 52 53 51 42 -1 54 9 25 20 -30 12 -64 6 -84 -14z"/>
<path d="M2620 1370 c0 -5 9 -10 20 -10 17 0 20 -7 20 -50 0 -27 5 -50 10 -50
6 0 10 23 10 50 0 43 3 50 20 50 11 0 20 5 20 10 0 6 -22 10 -50 10 -27 0 -50
-4 -50 -10z"/>
</g>
</svg>
